<svg height="480pt" viewBox="-5 0 480 480" width="480pt" xmlns="http://www.w3.org/2000/svg"><path d="m448 312v-24h-48v136c0 13.230469 10.769531 24 24 24s24-10.769531 24-24v-32h-24v-16h24v-16h-24v-16h24v-16h-24v-16zm0 0"/><path d="m384 256h80v16h-80zm0 0"/><path d="m320 312v-24h-48v136c0 13.230469 10.769531 24 24 24s24-10.769531 24-24v-32h-24v-16h24v-16h-24v-16h24v-16h-24v-16zm0 0"/><path d="m64 240h112v-16h-112zm0 0"/><path d="m224 387.710938c0-9.367188-4.992188-18.175782-13.023438-23l-46.183593-27.710938c-12.824219-7.6875-20.792969-21.761719-20.792969-36.710938v-44.289062h-48v44.289062c0 14.957032-7.96875 29.023438-20.792969 36.71875l-46.183593 27.710938c-8.03125 4.816406-13.023438 13.625-13.023438 22.992188 0 2.183593.273438 4.378906.808594 6.511718l21.4375 85.777344h163.507812l21.445313-85.785156c.527343-2.125.800781-4.320313.800781-6.503906zm-76.167969-23.566407c-6.753906-4.128906-12.785156-9.289062-17.929687-15.351562l12.203125-10.351563c4.039062 4.757813 8.773437 8.816406 14.070312 12.046875zm59.9375 25.503907-17.007812 68.289062-15.53125-3.867188 15.921875-63.925781-25.464844-15.28125 8.234375-13.71875 28.820313 17.296875c3.234374 1.925782 5.257812 5.488282 5.257812 9.269532zm0 0"/><path d="m464.9375 432h-1.746094c-3.71875 18.230469-19.871094 32-39.191406 32s-35.472656-13.769531-39.191406-32h-49.617188c-3.71875 18.230469-19.871094 32-39.191406 32s-35.472656-13.769531-39.191406-32h-26.5625l-12 48h252.691406zm0 0"/><path d="m256 256h80v16h-80zm0 0"/><path d="m400 144c13.230469 0 24-10.769531 24-24s-10.769531-24-24-24-24 10.769531-24 24 10.769531 24 24 24zm-8-32h16v16h-16zm0 0"/><path d="m328 152c0 4.417969-3.582031 8-8 8s-8-3.582031-8-8 3.582031-8 8-8 8 3.582031 8 8zm0 0"/><path d="m336 64c0 4.417969-3.582031 8-8 8s-8-3.582031-8-8 3.582031-8 8-8 8 3.582031 8 8zm0 0"/><path d="m360 208c52.9375 0 96-43.0625 96-96s-43.0625-96-96-96-96 43.0625-96 96 43.0625 96 96 96zm40-128c22.054688 0 40 17.945312 40 40s-17.945312 40-40 40-40-17.945312-40-40 17.945312-40 40-40zm-72-40c13.230469 0 24 10.769531 24 24s-10.769531 24-24 24-24-10.769531-24-24 10.769531-24 24-24zm-8 88c13.230469 0 24 10.769531 24 24s-10.769531 24-24 24-24-10.769531-24-24 10.769531-24 24-24zm0 0"/><path d="m72 184h40v32h16v-136h40c39.703125 0 72-32.304688 72-72v-8h-56c-27.871094 0-52.039062 15.945312-64 39.167969-11.960938-23.222657-36.128906-39.167969-64-39.167969h-56v8c0 39.695312 32.296875 72 72 72h40v50.847656c-13.207031-16.351562-33.390625-26.847656-56-26.847656h-56v8c0 39.695312 32.296875 72 72 72zm56-112v-19.128906c19.519531-18.582032 44.953125-28.871094 72-28.871094v16c-23.65625 0-45.894531 9.214844-62.625 25.945312l-9.375 9.367188zm-25.375-6.054688c-16.730469-16.730468-38.96875-25.945312-62.625-25.945312v-16c27.046875 0 52.480469 10.289062 72 28.871094v22.441406zm-62.625 62.054688c27.046875 0 52.480469 10.289062 72 28.871094v22.441406l-9.375-9.375c-16.730469-16.722656-38.96875-25.9375-62.625-25.9375zm0 0"/></svg>