<?xml version="1.0" encoding="iso-8859-1"?>
<!-- Generator: Adobe Illustrator 19.0.0, SVG Export Plug-In . SVG Version: 6.00 Build 0)  -->
<svg version="1.1" id="Capa_1" xmlns="http://www.w3.org/2000/svg" xmlns:xlink="http://www.w3.org/1999/xlink" x="0px" y="0px"
	 viewBox="0 0 512 512" style="enable-background:new 0 0 512 512;" xml:space="preserve">
<g>
	<g>
		<g>
			<circle cx="138" cy="324" r="20"/>
			<circle cx="138" cy="424" r="20"/>
			<path d="M100,394h76c11.046,0,20-8.954,20-20c0-11.046-8.954-20-20-20h-76c-11.046,0-20,8.954-20,20
				C80,385.046,88.954,394,100,394z"/>
			<path d="M100,158h18v18c0,11.046,8.954,20,20,20s20-8.954,20-20v-18h18c11.046,0,20-8.954,20-20s-8.954-20-20-20h-18v-18
				c0-11.046-8.954-20-20-20s-20,8.954-20,20v18h-18c-11.046,0-20,8.954-20,20S88.954,158,100,158z"/>
			<path d="M492,352c11.046,0,20-8.954,20-20V80c0-44.112-35.888-80-80-80H80C35.888,0,0,35.888,0,80v352c0,44.112,35.888,80,80,80
				h352c44.112,0,80-35.888,80-80c0-11.046-8.954-20-20-20c-11.046,0-20,8.954-20,20c0,22.056-17.944,40-40,40H276V277h196v55
				C472,343.046,480.954,352,492,352z M236,472H80c-22.056,0-40-17.944-40-40V277h196V472z M236,237H40V80c0-22.056,17.944-40,40-40
				h156V237z M276,237V40h156c22.056,0,40,17.944,40,40v157H276z"/>
			<path d="M417.602,330.516c-7.81-7.809-20.473-7.809-28.284,0l-15.358,15.358l-15.358-15.358c-7.81-7.809-20.473-7.809-28.284,0
				c-7.811,7.81-7.811,20.474,0,28.285l15.357,15.357l-15.357,15.357c-7.811,7.81-7.811,20.474,0,28.285
				c3.905,3.904,9.023,5.857,14.142,5.857c5.119,0,10.237-1.953,14.142-5.857l15.358-15.358l15.358,15.358
				c3.905,3.904,9.023,5.857,14.142,5.857c5.119,0,10.237-1.953,14.142-5.857c7.811-7.81,7.811-20.474,0-28.285l-15.357-15.357
				l15.357-15.357C425.413,350.99,425.413,338.326,417.602,330.516z"/>
			<path d="M412,118h-76c-11.046,0-20,8.954-20,20s8.954,20,20,20h76c11.046,0,20-8.954,20-20S423.046,118,412,118z"/>
		</g>
	</g>
</g>
<g>
</g>
<g>
</g>
<g>
</g>
<g>
</g>
<g>
</g>
<g>
</g>
<g>
</g>
<g>
</g>
<g>
</g>
<g>
</g>
<g>
</g>
<g>
</g>
<g>
</g>
<g>
</g>
<g>
</g>
</svg>
