<svg id="Layer_1" enable-background="new 0 0 512.014 512.014" height="512" viewBox="0 0 512.014 512.014" width="512" xmlns="http://www.w3.org/2000/svg"><g><path d="m331.264 263.395-43.189 26.128c-5.095 3.082-8.856 7.917-10.592 13.613l-10.369 34.037c31.486-5.747 60.459-20.871 83.56-44.005 6.628-6.638 12.583-13.795 17.841-21.383l-11.092-7.627c-7.797-5.362-18.064-5.661-26.159-.763z"/><path d="m304.814 92.897c-2.791 2.791-4.299 6.653-4.138 10.597l.228 5.595c.938 23.075-15.629 42.683-38.538 45.609l-11.614 1.484c-1.917.245-3.829.366-5.726.366-11.827 0-23.064-4.702-31.484-13.331-9.771-10.013-14.164-23.687-12.052-37.517.62-4.063-.485-8.04-3.112-11.199s-6.336-4.972-10.443-5.103l-37.49-1.198c-11.755-.376-22.293-5.8-29.308-14.654-21.639 23.627-35.308 53.102-39.647 85.08l29.483-7.919c11.101-2.982 23.139-1.33 33.025 4.532l48.433 28.717c11.997 7.113 19.81 19.661 20.899 33.565l2.294 29.266c1.357 17.302-7.742 33.606-23.181 41.536-11.726 6.022-21.309 15.294-27.714 26.815l-2.864 5.152c22.205 12.211 47.135 18.935 73.1 19.458l13.818-45.356c3.894-12.779 12.332-23.624 23.762-30.539l43.189-26.127c18.159-10.985 41.195-10.315 58.685 1.711l8.779 6.036c8.723-19.968 13.309-41.857 13.309-64.572 0-37.722-12.653-73.166-35.893-101.311l19.575-19.575c28.739 33.677 44.415 76.02 44.415 120.776 0 49.791-19.389 96.601-54.596 131.808s-82.018 54.596-131.808 54.596c-44.757 0-87.099-15.675-120.777-44.415l19.494-19.494c.017.014.035.028.053.043l1.54-2.769c9.297-16.724 23.208-30.184 40.229-38.925 4.648-2.387 7.387-7.295 6.979-12.504l-2.294-29.267c-.328-4.186-2.68-7.963-6.292-10.105l-48.433-28.717c-2.977-1.765-6.601-2.261-9.942-1.364l-38.515 10.345c1.868 34.22 14.224 66.185 35.495 92.02l-19.949 19.949-17.165-17.166-21.213 21.213 27.772 27.772c37.328 37.328 85.893 59.329 138.066 62.867v27.514h-85.924l-30.379 87.82h262.605l-30.379-87.82h-85.924v-27.52c52.138-3.557 100.669-25.554 137.976-62.861 40.874-40.873 63.383-95.217 63.383-153.021s-22.51-112.147-63.383-153.021l-27.773-27.769-21.213 21.213 17.166 17.166z"/><path d="m151.403 58.216 37.49 1.198c12.616.403 24.481 6.2 32.552 15.906s11.607 22.43 9.702 34.909c-.677 4.437.732 8.824 3.867 12.036s7.481 4.728 11.937 4.16l11.614-1.484c7.35-.939 12.665-7.229 12.363-14.632l-.228-5.595c-.5-12.292 4.203-24.33 12.901-33.028l30.477-30.477c-23.002-12.53-48.902-19.187-75.832-19.187-34.565 0-67.438 10.961-94.659 31.239.903 1.776 3.121 4.804 7.816 4.955z"/></g></svg>