<svg id="Capa_1" enable-background="new 0 0 512 512" height="512" viewBox="0 0 512 512" width="512" xmlns="http://www.w3.org/2000/svg"><g><path d="m84.759 382.14c-5.397-3.208-12.367-2.713-17.241 1.26-4.878 3.977-6.691 10.753-4.607 16.652 2.083 5.896 7.878 9.948 14.13 9.948 7.096 0 13.32-5.146 14.731-12.07 1.247-6.128-1.639-12.596-7.013-15.79z"/><path d="m77.044 110h84.537c8.296 0 15.021-6.716 15.021-15s-6.725-15-15.021-15h-84.537c-8.296 0-15.021 6.716-15.021 15s6.726 15 15.021 15z"/><path d="m493.245 81.128c-28.264-32.826-78.834-37.309-112.73-9.996l-27.666 22.293c-.207.167-.514.019-.514-.246v-78.179c0-8.284-6.725-15-15.021-15h-322.293c-8.296 0-15.021 6.716-15.021 15v415.373c0 45.009 37.669 81.627 83.97 81.627h295.031c28.507 0 51.699-22.713 51.699-50.63 0-27.806-23.1-50.518-51.493-50.862h-26.558c-.174-.001-.315-.142-.315-.316v-118.621c.34.023.68.045 1.019.045 3.406 0 6.742-1.158 9.433-3.327l120.127-96.798c16.638-13.408 26.855-32.327 28.765-53.271 1.898-20.807-4.648-41.083-18.433-57.092zm-171.746 120.939-36.129 29.654c-.206.169-.516.023-.516-.244l-.009-44.553c0-.096.043-.186.118-.246l36.128-29.112c.207-.166.514-.019.514.246l.01 44.011c0 .095-.043.184-.116.244zm79.159 259.303c0 11.376-9.716 20.63-21.657 20.63h-229.651c-.266 0-.408-.306-.239-.512 9.563-11.595 15.952-24.958 17.864-40.474.019-.157.152-.275.311-.275h211.804c11.892.047 21.568 9.302 21.568 20.631zm-246.968-50.861c-.724 0-1.447.031-2.161.148-5.362.879-10.357 3.878-12.649 8.989-1.661 3.704-1.344 7.773-1.345 11.727 0 28.467-24.03 50.627-53.565 50.627-29.736 0-53.928-23.16-53.928-51.627v-400.057c0-.174.141-.316.316-.316h291.619c.174 0 .316.141.316.316v87.582c0 .096-.043.186-.118.246l-27.038 21.787c-.068.024-.13.046-.198.07h-217.895c-8.296 0-15.021 6.716-15.021 15s6.725 15 15.021 15h180.616c.263 0 .402.296.242.505-1.985 2.59-3.102 5.776-3.101 9.102l.004 20.077c0 .174-.141.316-.316.316h-177.445c-8.296 0-15.021 6.716-15.021 15s6.725 15 15.021 15h177.452c.174 0 .316.141.316.316l.005 26.333c0 .095-.042.184-.115.244l-3.698 3.035c-.069.025-.132.047-.2.072h-173.76c-8.296 0-15.021 6.716-15.021 15s6.725 15 15.021 15h136.439c.297 0 .43.372.2.56l-35.781 29.368c-.069.025-.132.047-.201.072h-100.657c-8.296 0-15.021 6.716-15.021 15s6.725 15 15.021 15h106.563c4.612 0 8.735-2.08 11.49-5.347.012-.012.024-.023.036-.035l80.916-66.414c.071-.059.165-.083.256-.067l45.727 8.139c.151.027.26.158.26.311v123.604c0 .174-.141.316-.316.316.001 0-153.84 0-168.286.001zm195.418-149.886-41.761-7.433c-.265-.047-.353-.384-.145-.555l34.643-28.434c.071-.059.165-.083.256-.067l42.289 7.527c.267.048.354.387.143.557l-35.171 28.34c-.089.023-.166.043-.254.065zm132.652-125.124c-1.166 12.788-7.456 24.381-17.712 32.645l-47.889 38.589c-.088.023-.165.042-.253.065l-42.763-7.611c-.265-.047-.353-.384-.145-.555l48.915-40.149c6.409-5.26 7.334-14.712 2.066-21.112-5.268-6.401-14.734-7.325-21.142-2.064l-50.67 41.589c-.206.169-.516.023-.516-.244l-.01-43.552c0-.096.043-.186.118-.246l47.622-38.374c21.4-17.245 53.288-14.461 71.085 6.208 8.436 9.798 12.448 22.161 11.294 34.811z"/></g></svg>