<svg id="Layer_3" enable-background="new 0 0 64 64" height="512" viewBox="0 0 64 64" width="512" xmlns="http://www.w3.org/2000/svg"><path d="m14 23h26c.553 0 1-.448 1-1v-16c0-.552-.447-1-1-1h-26c-.553 0-1 .448-1 1v16c0 .552.447 1 1 1zm1-16h24v14h-24z"/><path d="m23.063 9.649-2.454 6.546-1.902-1.902-1.414 1.414 3 3c.189.189.444.293.707.293.07 0 .142-.007.212-.022.332-.072.605-.308.725-.626l2.756-7.352h12.307v-2h-13c-.417 0-.79.259-.937.649z"/><path d="m31.293 12.293-1.293 1.293-1.293-1.293-1.414 1.414 1.707 1.707v3.586h2v-3.586l1.707-1.707z"/><path d="m63 31c0-.913-.355-1.77-1-2.414l-.586-.586c-1.291-1.289-3.537-1.29-4.828 0l-11.586 11.586v-37.586c0-.552-.447-1-1-1h-40c-1.654 0-3 1.346-3 3v48 2c0 1.654 1.346 3 3 3h25.382l-2.276 4.553c-.192.385-.117.85.188 1.154.191.192.447.293.706.293.152 0 .305-.034.447-.105l8-4-.006-.011c.094-.047.187-.098.265-.176l1.708-1.708h5.586c.553 0 1-.447 1-1v-5.586l8.293 8.293c.078.078.172.129.265.176l-.006.011 8 4c.143.072.296.106.448.106.259 0 .515-.101.707-.293.305-.305.38-.77.188-1.154l-4-8-.011.006c-.047-.094-.098-.187-.176-.265l-8.294-8.294 11.586-11.586c.645-.644 1-1.501 1-2.414zm-20 6.586-9.586-9.586c-1.291-1.289-3.537-1.29-4.828 0l-.586.585c-.645.645-1 1.502-1 2.415s.355 1.77 1 2.414l11.586 11.586-6 6h-22.586v-48h32zm-13.586-5.586c-.268-.267-.414-.622-.414-1s.146-.733.414-1l.586-.585c.268-.268.622-.415 1-.415s.732.147 1 .414l2.586 2.586-2.586 2.586zm-26.414-28c0-.551.448-1 1-1h5v48h-6zm1 51c-.552 0-1-.448-1-1v-1h28.586l-.293.293c-.078.078-.129.171-.176.265l-.011-.006-.724 1.448zm28.274.688 2.038 2.038-4.076 2.038zm3.726.898-2.586-2.586 7.586-7.586 2.586 2.586zm7-1.586h-2.586l2.586-2.586zm12.688 2.726 2.038-2.038 2.038 4.076zm-1.688-1.14-20.586-20.586 2.586-2.586 20.586 20.586zm-7.586-15.586 7.586-7.586 2.586 2.586-7.586 7.586zm14.172-9-2.586 2.586-2.586-2.586 2.586-2.585c.535-.535 1.465-.535 2 0l.586.585c.268.267.414.622.414 1s-.146.733-.414 1z"/><path d="m62 5h-3v-3c0-.552-.447-1-1-1h-4c-.553 0-1 .448-1 1v3h-3c-.553 0-1 .448-1 1v4c0 .552.447 1 1 1h3v3c0 .552.447 1 1 1h4c.553 0 1-.448 1-1v-3h3c.553 0 1-.448 1-1v-4c0-.552-.447-1-1-1zm-1 4h-3c-.553 0-1 .448-1 1v3h-2v-3c0-.552-.447-1-1-1h-3v-2h3c.553 0 1-.448 1-1v-3h2v3c0 .552.447 1 1 1h3z"/><path d="m62 19h-12c-.553 0-1 .448-1 1v4c0 .552.447 1 1 1h12c.553 0 1-.448 1-1v-4c0-.552-.447-1-1-1zm-1 4h-10v-2h10z"/></svg>