<?xml version="1.0" encoding="iso-8859-1"?>
<!-- Generator: Adobe Illustrator 19.0.0, SVG Export Plug-In . SVG Version: 6.00 Build 0)  -->
<svg version="1.1" id="Capa_1" xmlns="http://www.w3.org/2000/svg" xmlns:xlink="http://www.w3.org/1999/xlink" x="0px" y="0px"
	 viewBox="0 0 512.001 512.001" style="enable-background:new 0 0 512.001 512.001;" xml:space="preserve">
<g>
	<g>
		<path d="M463.825,482H97.873l293.675-109.912c4.301-1.609,7.627-5.1,9.027-9.473l47.729-149.013L298.397,63.696l-149.012,47.729
			c-4.373,1.401-7.863,4.727-9.474,9.027L2.093,488.695l2.291-2.291C1.675,489.118,0,492.863,0,497c0,8.284,6.716,15,15,15h448.825
			c8.284,0,15-6.716,15-15S472.109,482,463.825,482z M15,482c-4.137,0-7.882,1.675-10.596,4.384L189.63,301.158
			c-15.312-24.766-12.47-57.975,9.369-79.815c25.271-25.27,66.388-25.27,91.658,0c25.33,25.33,25.332,66.327,0,91.658
			c-21.48,21.48-54.628,24.848-79.799,9.354L51.213,482H15z"/>
	</g>
</g>
<g>
	<g>
		<path d="M507.606,119.523L392.477,4.394C389.664,1.581,385.849,0,381.87,0s-7.794,1.581-10.606,4.394l-44.872,44.872
			l136.343,136.343l44.872-44.871c2.813-2.813,4.394-6.628,4.394-10.606C512,126.152,510.42,122.336,507.606,119.523z"/>
	</g>
</g>
<g>
</g>
<g>
</g>
<g>
</g>
<g>
</g>
<g>
</g>
<g>
</g>
<g>
</g>
<g>
</g>
<g>
</g>
<g>
</g>
<g>
</g>
<g>
</g>
<g>
</g>
<g>
</g>
<g>
</g>
</svg>
