<svg id="Layer_5" enable-background="new 0 0 64 64" height="512" viewBox="0 0 64 64" width="512" xmlns="http://www.w3.org/2000/svg"><g><g><g><path d="m24 11.99v13.95l-4 1.13v-16.22z" fill="#ccd1d9"/></g><g><path d="m60 21h-4.35c.23-.63.35-1.3.35-2s-.12-1.37-.35-2h4.35c.55 0 1.05.22 1.41.59.37.36.59.86.59 1.41 0 1.1-.9 2-2 2z" fill="#fc6e51"/></g><g><path d="m49.47 24.97-18.01 5.04c-3.06.06-5.97.7-8.64 1.82-.97.4-1.91.86-2.82 1.39l-9.84 2.75c-.11.02-.21.03-.32.03-1.02 0-1.84-.82-1.84-1.84 0-2.4 1.73-4.46 4.1-4.86l7.9-2.23 4-1.13 20.13-5.68c.55 2.54 2.7 4.48 5.34 4.71z" fill="#ff826e"/></g><g><path d="m12 2-2 6-6-5z" fill="#ff826e"/></g><g><path d="m12 2 37.47 11.03c-2.64.23-4.79 2.17-5.33 4.7l-20.14-5.74-4-1.14-10-2.85z" fill="#ff826e"/></g><g><path d="m44.13 20.26c-.08-.41-.13-.83-.13-1.26 0-.44.05-.86.14-1.27.54-2.53 2.69-4.47 5.33-4.7 0 0 0-.01.01 0 .17-.02.34-.03.52-.03 2.61 0 4.84 1.67 5.65 4 .23.63.35 1.3.35 2s-.12 1.37-.35 2c-.81 2.33-3.04 4-5.65 4-.18 0-.35-.01-.52-.03-.01.01-.01 0-.01 0-2.64-.23-4.79-2.17-5.34-4.71zm7.87-1.26c0-1.1-.9-2-2-2s-2 .9-2 2 .9 2 2 2 2-.9 2-2z" fill="#fc6e51"/></g><g><path d="m56 54c0-3.25-.65-6.35-1.83-9.18-1.21-2.93-2.99-5.58-5.2-7.79s-4.85-3.99-7.79-5.2c-2.83-1.18-5.93-1.83-9.18-1.83-.18 0-.36 0-.54.01-3.06.06-5.97.7-8.64 1.82-.97.4-1.91.86-2.82 1.39-1.82 1.05-3.49 2.33-4.97 3.81-2.21 2.21-3.99 4.86-5.2 7.79-1.18 2.83-1.83 5.93-1.83 9.18h-6v8h4 4 4 4 4 4 4 4 4 4 4 4 4 4 4v-8zm-20 0c0 2.21-1.79 4-4 4-.73 0-1.41-.2-2-.54-1.2-.69-2-1.98-2-3.46h-12c0-5.92 3.23-11.08 8.01-13.85-.04-.36.04-.72.2-1.05.24-.47.65-.83 1.16-1 .2-.07.41-.1.63-.1.58 0 1.11.25 1.47.66 1.44-.42 2.95-.66 4.53-.66 6.63 0 12.32 4.03 14.74 9.77.81 1.91 1.26 4.02 1.26 6.23z" fill="#ffeaa7"/></g><g><path d="m27.47 38.66c.19.2.34.44.43.71l4.56 10.66c-.15-.02-.3-.03-.46-.03-1.31 0-2.47.63-3.19 1.6l-4.71-10.97c-.05-.16-.08-.32-.09-.48-.04-.36.04-.72.2-1.05.24-.47.65-.83 1.16-1 .2-.07.41-.1.63-.1.58 0 1.11.25 1.47.66z" fill="#b4dd7f"/></g><g><path d="m32.46 50.03c1.99.22 3.54 1.92 3.54 3.97 0 2.21-1.79 4-4 4-.73 0-1.41-.2-2-.54-1.2-.69-2-1.98-2-3.46 0-.9.3-1.73.81-2.4.72-.97 1.88-1.6 3.19-1.6.16 0 .31.01.46.03z" fill="#a0d468"/></g></g><g><circle cx="32" cy="54" r="1"/><path d="m50 22c1.654 0 3-1.346 3-3s-1.346-3-3-3-3 1.346-3 3 1.346 3 3 3zm0-4c.551 0 1 .449 1 1s-.449 1-1 1-1-.449-1-1 .449-1 1-1z"/><path d="m36.996 29.504 12.599-3.524c.135.007.268.02.405.02 2.785 0 5.189-1.639 6.315-4h3.685c1.654 0 3-1.346 3-3s-1.346-3-3-3h-3.685c-1.126-2.361-3.53-4-6.315-4-.133 0-.263.013-.394.02l-37.523-11.038-10.493 1.311 7.932 6.61 9.478 2.7v14.707l-7.121 2.008c-2.439.443-4.29 2.326-4.757 4.682h-6.122v2h6.141c.36 1.154 1.426 2 2.697 2 .166 0 .332-.015.495-.043l4.731-1.321c-4.724 4.36-7.773 10.509-8.044 17.364h-6.02v10h62v-10h-6.02c-.459-11.629-8.901-21.239-19.984-23.496zm23.004-11.504c.551 0 1 .449 1 1s-.449 1-1 1h-3.08c.047-.328.08-.66.08-1s-.033-.672-.08-1zm-5 1c0 2.757-2.243 5-5 5s-5-2.243-5-5 2.243-5 5-5 5 2.243 5 5zm-11.529-2.504-32.192-9.171 1.364-4.093 33.586 9.88c-1.246.8-2.219 1.984-2.758 3.384zm-.443 1.954c-.014.182-.028.364-.028.55 0 .181.014.359.027.536l-18.027 5.084v-11.306zm-32.479-15.261-1.034 3.105-3.105-2.587zm10.451 8.985 2 .57v12.44l-2 .564zm-11.052 22.819c-.489.059-.948-.332-.948-.831 0-1.923 1.376-3.555 3.272-3.881l31.194-8.79c.531 1.388 1.487 2.565 2.714 3.368l-14.868 4.159c-4.236.115-8.212 1.287-11.673 3.265zm51.052 26.007h-2v-2h-2v2h-2v-4h-2v4h-2v-2h-2v2h-2v-4h-2v4h-2v-2h-2v2h-2v-4h-2v4h-2v-2h-2v2h-2v-2.101c.323.066.658.101 1 .101 2.414 0 4.434-1.721 4.899-4h12.101v-1c0-9.374-7.626-17-17-17-1.428 0-2.857.195-4.258.558-.497-.354-1.101-.558-1.742-.558-.326 0-.646.052-.947.153-.761.252-1.377.786-1.737 1.503-.146.291-.228.602-.272.92-4.972 3.095-8.044 8.567-8.044 14.424v1h12.101c.247 1.213.946 2.253 1.899 2.974v3.026h-2v-2h-2v2h-2v-4h-2v4h-2v-2h-2v2h-2v-4h-2v4h-2v-2h-2v2h-2v-4h-2v4h-2v-6h6v-1c0-2.763.49-5.413 1.388-7.87l3.676 1.523.766-1.848-3.67-1.521c1-2.137 2.317-4.098 3.895-5.817l2.804 2.804 1.414-1.414-2.804-2.804c1.719-1.577 3.68-2.894 5.817-3.895l1.52 3.67 1.848-.766-1.523-3.676c2.158-.788 4.467-1.259 6.87-1.362v3.976h2v-3.975c2.403.103 4.712.574 6.87 1.362l-1.523 3.676 1.848.766 1.52-3.67c2.137 1 4.098 2.317 5.817 3.895l-2.804 2.804 1.414 1.414 2.804-2.804c1.577 1.719 2.894 3.68 3.895 5.817l-3.67 1.521.766 1.848 3.676-1.523c.896 2.456 1.386 5.106 1.386 7.869v1h6zm-43.966-8c.307-4.534 2.692-8.712 6.432-11.312l4.216 9.837c-.262.455-.473.944-.581 1.475zm19.865 0c-.386-1.894-1.852-3.389-3.72-3.845l-4.218-9.835c1.005-.209 2.023-.32 3.039-.32 7.935 0 14.45 6.193 14.967 14zm-7.899 1c0-1.654 1.346-3 3-3s3 1.346 3 3-1.346 3-3 3-3-1.346-3-3zm1.982-4.895c-.667.139-1.283.414-1.824.79l-4.108-9.578c-.084-.255-.065-.526.054-.765.12-.239.325-.417.582-.502.49-.17 1.083.102 1.291.71z"/></g></g></svg>