<svg id="Capa_1" enable-background="new 0 0 512 512" height="512" viewBox="0 0 512 512" width="512" xmlns="http://www.w3.org/2000/svg"><g><g><path d="m108.603 335.196c-.026-.069-.053-.138-.082-.207-1.346-3.27-4.5-5.382-8.035-5.382-.003 0-.006 0-.009 0-3.54.004-6.693 2.123-8.034 5.399-.023.057-.045.114-.067.171l-19.706 51.741c-1.474 3.871.468 8.204 4.339 9.678 3.872 1.475 8.204-.469 9.678-4.339l3.068-8.056h21.308c2.041 4.775 2.912 12.355 10.051 12.888.879 0 1.775-.156 2.646-.485 3.875-1.462 5.832-5.79 4.369-9.665zm-13.135 34.005 4.99-13.102 4.945 13.102z"/><path d="m252.945 69.93h-15.244c-4.142 0-7.5 3.358-7.5 7.5v24.166.039 28.275c0 1.995.795 3.908 2.208 5.315 1.406 1.4 3.309 2.185 5.292 2.185h.033s14.011-.063 17.873-.063c11.925 0 21.626-9.701 21.626-21.626 0-6.499-2.886-12.333-7.438-16.301 1.72-2.912 2.726-6.294 2.726-9.915 0-10.793-8.782-19.575-19.576-19.575zm0 15c2.523 0 4.576 2.053 4.576 4.576s-2.053 4.576-4.576 4.576c-1.114 0-7.744.014-7.744.014v-9.166zm2.662 37.418c-1.936 0-6.41.016-10.406.031v-13.275c.745-.003 10.406-.008 10.406-.008 3.654 0 6.626 2.972 6.626 6.626s-2.972 6.626-6.626 6.626z"/><path d="m434.412 375.657c-7.828-5.899-11.772 5.956-21.35 5.655-10.333 0-18.74-8.407-18.74-18.74s8.407-18.74 18.74-18.74c3.756 0 7.378 1.105 10.473 3.196 3.432 2.319 8.094 1.416 10.413-2.017 2.319-3.432 1.416-8.094-2.017-10.413-5.584-3.772-12.109-5.767-18.87-5.767-18.604 0-33.74 15.136-33.74 33.74s15.136 33.74 33.74 33.74c7.462 0 14.167-2.458 19.39-7.11 3.434-2.322 6.871-8.961 1.961-13.544z"/><path d="m428.294 190.616c.577-5.74.875-11.56.875-17.449 0-95.485-77.682-173.167-173.167-173.167-43.715 0-85.456 16.334-117.533 45.994-31.895 29.491-51.438 69.485-55.03 112.615-.344 4.128 2.724 7.753 6.852 8.097 4.138.344 7.753-2.724 8.097-6.852 3.28-39.384 21.131-75.909 50.265-102.847 29.297-27.089 67.421-42.007 107.349-42.007 87.213 0 158.167 70.953 158.167 158.167 0 3.229-.109 6.433-.301 9.616-22.713-10.966-48.169-17.116-75.035-17.116-29.999 0-58.239 7.672-82.866 21.151-24.728-13.511-52.998-21.151-82.801-21.151-30.435-.031-60.769 8.323-85.97 22.888-52.058 29.897-87.196 86.061-87.196 150.278 0 95.485 77.682 173.167 173.167 173.167 29.256 0 57.643-7.335 82.839-21.078 25.293 13.792 53.83 21.078 82.827 21.078 95.485 0 173.167-77.682 173.167-173.167 0-62.771-33.574-117.846-83.706-148.217zm-89.461-9.949c26.423 0 51.348 6.522 73.266 18.027-7.231 44.372-32.986 82.598-69.046 106.46-1.738-8.817-4.147-17.376-7.16-25.634-10.619-29.093-29.642-56.044-54.903-76.073-3.263-2.599-6.623-5.079-10.068-7.44 20.588-9.829 43.617-15.34 67.911-15.34zm-82.831 150.666c-2.435 0-4.859-.057-7.27-.168l64.962-64.954c2.287 4.409 4.379 8.939 6.252 13.585l-51.005 51.004c-4.268.348-8.582.533-12.939.533zm-42.617-5.862 84.211-84.211c2.927 3.718 5.691 7.573 8.283 11.553l-76.3 76.292c-5.492-.932-10.896-2.146-16.194-3.634zm-29.475-11.584 93.719-93.719c3.514 3.09 6.892 6.335 10.123 9.725l-90.203 90.203c-4.655-1.86-9.207-3.931-13.639-6.209zm5.389-26.603c12.022-34.776 35.853-64.088 66.677-83.122 3.369 2.076 6.656 4.274 9.855 6.59zm136.048 8.325c1.634 5.764 2.95 11.668 3.927 17.694-10.959 5.753-22.67 10.259-34.946 13.325zm-84.328-99.591c-36.62 25.16-63.121 64.018-72.052 109.125-35.911-23.721-61.82-61.739-69.072-106.446 21.919-11.507 46.846-18.031 73.271-18.031 24.148.001 47.19 5.499 67.853 15.352zm97.814 300.982c-23.543 0-46.746-5.263-67.831-15.27 6.73-4.616 13.168-9.727 19.257-15.319 31.816-29.217 51.477-68.907 55.36-111.76.374-4.125-2.667-7.772-6.792-8.146-4.121-.376-7.772 2.667-8.146 6.792-3.546 39.129-21.504 75.377-50.567 102.065-29.239 26.851-67.22 41.638-106.947 41.638-87.214 0-158.167-70.953-158.167-158.167 0-55.074 28.301-103.655 71.116-131.988 9.624 48.822 39.684 89.849 80.428 114.506-.579 5.75-.878 11.582-.878 17.482 0 47.835 20.069 93.994 55.062 126.642 3.028 2.826 7.774 2.661 10.6-.368 2.826-3.028 2.661-7.774-.368-10.6-31.963-29.821-50.294-71.982-50.294-115.674 0-3.246.11-6.467.304-9.665 4.831 2.332 9.782 4.444 14.84 6.327 23.692 8.906 50.737 12.618 77.235 9.999 23.952-2.322 48.418-10.188 68.926-22.048 42.721-24.534 74.037-66.761 83.901-116.608 42.822 28.332 71.128 76.917 71.128 131.995 0 87.214-70.953 158.167-158.167 158.167z"/></g></g></svg>